<?xml version="1.0" encoding="UTF-8"?>
<svg xmlns="http://www.w3.org/2000/svg" xmlns:xlink="http://www.w3.org/1999/xlink" width="3000" height="3000" viewBox="0 0 3000 3000">
<rect x="-300" y="-300" width="3600" height="3600" fill="rgb(100%, 100%, 100%)" fill-opacity="1"/>
<path fill-rule="nonzero" fill="rgb(0%, 0%, 0%)" fill-opacity="1" d="M 1204.730469 1109.070312 L 1050 1890.929688 L 1133.519531 1890.929688 L 1272.039062 1191 L 1745.191406 1191 C 1823.5 1191 1880.929688 1260.929688 1865.730469 1337.75 C 1846.230469 1436.300781 1796 1527.179688 1727.929688 1603.019531 L 1782.710938 1666.460938 C 1863.378906 1578.648438 1922.761719 1471.621094 1946.101562 1353.648438 C 1971 1227.871094 1873.410156 1109.070312 1745.191406 1109.070312 Z M 1339.320312 1272.921875 L 1217 1890.929688 L 1299.320312 1890.929688 C 1428.789062 1890.929688 1553.398438 1846.78125 1659.308594 1774.261719 L 1604.320312 1710.601562 C 1517.960938 1767.960938 1418.730469 1803.488281 1317.078125 1807.238281 L 1406.609375 1354.851562 L 1690.460938 1354.851562 C 1666.800781 1423.109375 1623.898438 1488.339844 1564.828125 1539.679688 L 1534 1566.480469 L 1814.179688 1890.929688 L 1922.421875 1890.929688 L 1647.5 1572.539062 C 1710.191406 1509.121094 1756.628906 1432.738281 1778.648438 1350.628906 C 1783.558594 1332.351562 1779.71875 1310.929688 1767.640625 1295.910156 C 1755.558594 1280.890625 1736.640625 1272.921875 1718.328125 1272.921875 L 1339.320312 1272.921875 "/>
</svg>
